<?xml version="1.0" encoding="utf-8"?>
<!-- Generator: Adobe Illustrator 26.0.2, SVG Export Plug-In . SVG Version: 6.00 Build 0)  -->
<svg version="1.1" id="Layer_1" xmlns="http://www.w3.org/2000/svg" xmlns:xlink="http://www.w3.org/1999/xlink" x="0px" y="0px"
	 viewBox="0 0 36 36" style="enable-background:new 0 0 36 36;" xml:space="preserve">
<style type="text/css">
	.st0{fill:#FFFFFF;}
	.st1{fill:none;}
	.st2{clip-path:url(#SVGID_00000137114433353881854230000010964088569159335040_);}
	.st3{fill:#D14848;}
	.st4{fill:#518EF8;}
	.st5{fill:#00AB6B;}
</style>
<path class="st0" d="M4,0h28c2.21,0,4,1.79,4,4v28c0,2.21-1.79,4-4,4H4c-2.21,0-4-1.79-4-4V4C0,1.79,1.79,0,4,0z"/>
<path class="st1" d="M4.17,0.18h28c2.21,0,4,1.79,4,4v28c0,2.21-1.79,4-4,4h-28c-2.21,0-4-1.79-4-4v-28
	C0.17,1.97,1.96,0.18,4.17,0.18z"/>
<g>
	<defs>
		<rect id="SVGID_1_" x="7.2" y="7.2" width="21.6" height="21.6"/>
	</defs>
	<clipPath id="SVGID_00000005961519333463130060000009752397827591451286_">
		<use xlink:href="#SVGID_1_"  style="overflow:visible;"/>
	</clipPath>
	<g style="clip-path:url(#SVGID_00000005961519333463130060000009752397827591451286_);">
		<path class="st3" d="M11.99,20.25l-0.75,2.81l-2.75,0.06C7.67,21.6,7.2,19.85,7.2,18c0-1.79,0.44-3.48,1.21-4.97h0l2.45,0.45
			l1.07,2.43c-0.22,0.65-0.35,1.36-0.35,2.09C11.58,18.79,11.72,19.55,11.99,20.25z"/>
		<path class="st4" d="M28.61,15.98c0.12,0.65,0.19,1.33,0.19,2.02c0,0.77-0.08,1.53-0.24,2.25c-0.53,2.48-1.9,4.64-3.8,6.17l0,0
			l-3.08-0.16l-0.44-2.72c1.26-0.74,2.25-1.9,2.77-3.29h-5.78v-4.27h5.86H28.61z"/>
		<path class="st5" d="M24.76,26.42L24.76,26.42c-1.85,1.49-4.2,2.38-6.76,2.38c-4.11,0-7.69-2.3-9.51-5.68l3.5-2.86
			c0.91,2.43,3.26,4.17,6.01,4.17c1.18,0,2.29-0.32,3.24-0.88L24.76,26.42z"/>
		<path class="st3" d="M24.89,9.69l-3.5,2.86c-0.98-0.62-2.15-0.97-3.39-0.97c-2.82,0-5.21,1.81-6.07,4.33l-3.52-2.88h0
			C10.2,9.57,13.83,7.2,18,7.2C20.62,7.2,23.02,8.13,24.89,9.69z"/>
	</g>
</g>
</svg>
